<?xml version="1.0" encoding="UTF-8" standalone="no"?>
<svg width="30px" height="30px" viewBox="0 0 30 30" version="1.1" xmlns="http://www.w3.org/2000/svg" xmlns:xlink="http://www.w3.org/1999/xlink">
    <!-- Generator: Sketch 3.8.3 (29802) - http://www.bohemiancoding.com/sketch -->
    <title>fb-messenger-icon</title>
    <desc>Created with Sketch.</desc>
    <defs></defs>
    <g id="Epic" stroke="none" stroke-width="1" fill="none" fill-rule="evenodd">
        <g id="Desktop-HD" transform="translate(-326.000000, -591.000000)" fill="#FFFFFF">
            <g id="Intro">
                <g id="CTA" transform="translate(303.000000, 575.000000)">
                    <g id="fb-messenger-icon" transform="translate(23.000000, 16.000000)">
                        <path d="M15,0 C6.71571429,0 0,6.21824074 0,13.8888889 C0,18.2597222 2.18124224,22.1584259 5.59006211,24.7043519 L5.59006211,30 L10.6974224,27.1969444 C12.0604658,27.5741667 13.504472,27.7777778 15,27.7777778 C23.2842857,27.7777778 30,21.559537 30,13.8888889 C30,6.21824074 23.2842857,0 15,0 L15,0 Z M16.4906832,18.7037037 L12.6708075,14.6296296 L5.2173913,18.7037037 L13.4161491,10 L17.3291925,14.0740741 L24.689441,10 L16.4906832,18.7037037 L16.4906832,18.7037037 Z" id="Shape"></path>
                    </g>
                </g>
            </g>
        </g>
    </g>
</svg>